<svg width="99" height="72" viewBox="0 0 99 72" fill="none" xmlns="http://www.w3.org/2000/svg">
<g filter="url(#filter0_d_345_6859)">
<path fill-rule="evenodd" clip-rule="evenodd" d="M96.7667 28.6292C98.3768 30.1535 98.4463 32.6944 96.922 34.3045C95.3977 35.9146 92.8568 35.9842 91.2467 34.4599L64.3018 8.95062L7.38513 44.209C5.50029 45.3767 3.02579 44.7952 1.85819 42.9104C0.690577 41.0256 1.272 38.5511 3.15684 37.3834L18.3753 27.956C18.208 27.6086 18.1132 27.2167 18.1132 26.7967V19.5258C18.1132 18.0489 19.3104 16.8517 20.7872 16.8517H36.3006L62.4299 0.665304C62.9502 0.342945 63.5156 0.153903 64.0859 0.0887987C65.3349 -0.177749 66.6898 0.15484 67.6874 1.09924L96.7667 28.6292ZM20.3758 9.03542C19.1262 9.03542 18.1132 10.0484 18.1132 11.2981V13.7664C18.1132 15.016 19.1262 16.0291 20.3758 16.0291H27.9866C29.2362 16.0291 30.2492 15.016 30.2492 13.7664V11.2981C30.2492 10.0484 29.2362 9.03542 27.9866 9.03542H20.3758Z" fill="#424242"/>
</g>
<g filter="url(#filter1_d_345_6859)">
<path fill-rule="evenodd" clip-rule="evenodd" d="M63.8798 10.2695L84.9635 29.9134V56.3452L77.2945 66.9639C77.1044 66.0993 76.8433 65.1951 76.5822 64.291C76.082 62.559 75.5819 60.8273 75.5819 59.3753C75.5819 56.4734 82.0935 53.7384 82.0935 53.7384V30.1524C82.0935 30.1524 79.2506 29.8699 77.4654 30.1524C76.6342 30.284 76.0132 30.5821 75.4056 30.8737C74.7019 31.2115 74.0163 31.5406 73.0429 31.5923C71.8517 31.6556 70.9997 31.2837 70.1161 30.8979C69.3897 30.5807 68.6418 30.2542 67.6663 30.1524C66.2393 30.0036 63.9923 30.1524 63.9923 30.1524V53.7384C63.9923 53.7384 70.504 56.9092 70.504 59.3753C70.5061 61.9805 69.88 63.8377 69.3277 65.4762C69.1384 66.0378 68.9577 66.5737 68.814 67.1052L61.3086 56.3452V11.7094L63.8798 10.2695ZM66.2625 32.9709C66.2625 32.9709 67.6106 32.5459 68.5027 32.5179C69.4294 32.4889 70.0931 32.8932 70.754 33.2958C71.428 33.7063 72.099 34.1151 73.0429 34.0607C73.8495 34.0141 74.4033 33.6533 74.9589 33.2913C75.5061 32.9349 76.0548 32.5773 76.8483 32.5179C78.0203 32.4302 79.8234 32.9709 79.8234 32.9709C79.8234 32.9709 79.857 37.4813 79.8533 39.2382C79.8533 41.7415 79.1737 42.7242 78.4195 42.7242C78.0838 42.7242 77.794 42.1071 77.4723 41.4222C77.0713 40.5683 76.6208 39.6091 75.9702 39.6091C75.3672 39.6091 75.021 40.4233 74.6847 41.2142C74.3672 41.9611 74.0585 42.6871 73.5507 42.6871C72.9384 42.6871 72.4418 42.1262 72.117 40.9812L72.0807 40.853C71.7476 39.6756 71.1518 37.5694 70.504 37.5694C69.8319 37.5694 69.41 39.3356 69.1897 40.7587C69.0516 41.6627 68.5624 43.6142 67.6663 43.6142C66.9569 43.6142 66.2326 42.7335 66.2326 41.0925L66.2625 32.9709ZM65.3365 49.4877H80.7494V53.0647H65.3365V49.4877ZM65.3293 46.9209H80.7564V47.9493H65.3293V46.9209Z" fill="#5B322E"/>
</g>
<g filter="url(#filter2_d_345_6859)">
<path fill-rule="evenodd" clip-rule="evenodd" d="M60.487 12.4297L36.832 27.2397V56.2428L45.0372 67.6037C44.5677 65.9325 44.2441 63.9915 44.2466 61.9983C44.2485 60.5505 44.8737 59.1906 45.4298 57.981L45.4662 57.9018C45.8434 57.0789 46.1991 56.2893 46.2011 55.7909C46.1678 55.5701 45.6089 54.9681 45.3098 54.6495L45.2882 54.6265C44.7201 54.02 44.2779 53.548 44.2779 52.9921C44.2798 52.3139 44.4577 51.7804 44.8251 51.4129C45.4056 50.8325 46.1815 50.9087 46.4669 50.9595L52.7993 50.9439C53.0143 50.9282 53.7922 50.9048 54.3785 51.4286C54.6619 51.6807 54.9883 52.1595 54.9883 52.9765C54.9864 53.5335 54.531 54.0358 53.9407 54.6808L53.9406 54.681C53.6513 54.9976 53.114 55.5858 53.0651 55.8066C53.0671 56.0431 53.3212 56.5747 53.5968 57.12L53.6221 57.17C54.2042 58.3202 54.9903 59.8733 54.9883 61.9827C54.9873 62.7809 54.9337 63.5713 54.8392 64.3396L60.487 56.2428V12.4297ZM52.7993 49.1927L52.7837 49.521C52.772 49.521 52.7622 49.5191 52.7524 49.521L46.5763 49.5367C46.5519 49.5339 46.5229 49.5283 46.4927 49.5224C46.4577 49.5156 46.4212 49.5085 46.3887 49.5054V49.1927C46.3887 49.005 46.4747 48.8252 46.6076 48.6923C46.7405 48.5594 46.9203 48.4734 47.1079 48.4734H52.0801C52.2677 48.4734 52.4475 48.5594 52.5804 48.6923C52.7133 48.8252 52.7993 49.005 52.7993 49.1927ZM51.5798 35.4958V47.0662H47.6083V35.5271L46.7014 33.1817L47.6239 29.1008C47.6474 28.8115 47.7607 28.5262 47.9679 28.319C48.1985 28.0884 48.5191 27.975 48.8435 27.975L50.3602 27.9906C50.6846 27.9906 50.9895 28.0884 51.2201 28.319C51.4273 28.5262 51.5426 28.8096 51.5641 29.1008L52.5023 33.1661L51.5798 35.4958Z" fill="#A0443D"/>
</g>
<g filter="url(#filter3_d_345_6859)">
<path fill-rule="evenodd" clip-rule="evenodd" d="M36.0085 27.5479L12.3535 42.3579V56.5509L21.2405 68.856L21.9629 53.4379C21.7616 53.3488 21.5148 53.2512 21.2471 53.1453C20.399 52.8098 19.3404 52.3911 18.8492 51.896C15.9605 48.984 15.9605 44.2465 18.8492 41.3345C19.4034 40.7759 20.0428 40.31 20.7539 39.9473L21.6475 39.4935L21.6492 46.6428L24.0877 47.6982L26.5245 46.6445L26.5262 39.4952L27.4197 39.949C28.1325 40.31 28.772 40.7759 29.3262 41.3345C32.2149 44.2465 32.2149 48.984 29.3262 51.896C28.8382 52.3879 27.7885 52.8033 26.943 53.1379C26.6687 53.2465 26.4158 53.3465 26.2107 53.4379L26.9655 69.5152L36.0085 56.5509V27.5479Z" fill="#DB6141"/>
</g>
<path d="M33.9612 59.6517C21.8717 43.2447 35.9839 23.1751 45.583 11.1077L36.121 16.8671H30.2587V8.74219H18.0198V28.0775L0.0214844 39.2879L2.79837 44.7388L5.98664 45.2531L11.7461 41.8591V55.6407L21.6195 69.5251H27.0704C27.0704 69.5251 35.4011 61.6059 33.9612 59.6517Z" fill="white" fill-opacity="0.06"/>
<defs>
<filter id="filter0_d_345_6859" x="0.451155" y="0" width="98.375" height="46.4209" filterUnits="userSpaceOnUse" color-interpolation-filters="sRGB">
<feFlood flood-opacity="0" result="BackgroundImageFix"/>
<feColorMatrix in="SourceAlpha" type="matrix" values="0 0 0 0 0 0 0 0 0 0 0 0 0 0 0 0 0 0 127 0" result="hardAlpha"/>
<feOffset dy="0.804705"/>
<feGaussianBlur stdDeviation="0.402352"/>
<feComposite in2="hardAlpha" operator="out"/>
<feColorMatrix type="matrix" values="0 0 0 0 0 0 0 0 0 0 0 0 0 0 0 0 0 0 0.25 0"/>
<feBlend mode="normal" in2="BackgroundImageFix" result="effect1_dropShadow_345_6859"/>
<feBlend mode="normal" in="SourceGraphic" in2="effect1_dropShadow_345_6859" result="shape"/>
</filter>
<filter id="filter1_d_345_6859" x="60.5039" y="10.2695" width="25.2647" height="58.4453" filterUnits="userSpaceOnUse" color-interpolation-filters="sRGB">
<feFlood flood-opacity="0" result="BackgroundImageFix"/>
<feColorMatrix in="SourceAlpha" type="matrix" values="0 0 0 0 0 0 0 0 0 0 0 0 0 0 0 0 0 0 127 0" result="hardAlpha"/>
<feOffset dy="0.804705"/>
<feGaussianBlur stdDeviation="0.402352"/>
<feComposite in2="hardAlpha" operator="out"/>
<feColorMatrix type="matrix" values="0 0 0 0 0 0 0 0 0 0 0 0 0 0 0 0 0 0 0.25 0"/>
<feBlend mode="normal" in2="BackgroundImageFix" result="effect1_dropShadow_345_6859"/>
<feBlend mode="normal" in="SourceGraphic" in2="effect1_dropShadow_345_6859" result="shape"/>
</filter>
<filter id="filter2_d_345_6859" x="36.0273" y="12.4297" width="25.2647" height="56.7832" filterUnits="userSpaceOnUse" color-interpolation-filters="sRGB">
<feFlood flood-opacity="0" result="BackgroundImageFix"/>
<feColorMatrix in="SourceAlpha" type="matrix" values="0 0 0 0 0 0 0 0 0 0 0 0 0 0 0 0 0 0 127 0" result="hardAlpha"/>
<feOffset dy="0.804705"/>
<feGaussianBlur stdDeviation="0.402352"/>
<feComposite in2="hardAlpha" operator="out"/>
<feColorMatrix type="matrix" values="0 0 0 0 0 0 0 0 0 0 0 0 0 0 0 0 0 0 0.25 0"/>
<feBlend mode="normal" in2="BackgroundImageFix" result="effect1_dropShadow_345_6859"/>
<feBlend mode="normal" in="SourceGraphic" in2="effect1_dropShadow_345_6859" result="shape"/>
</filter>
<filter id="filter3_d_345_6859" x="11.5488" y="27.5479" width="25.2647" height="43.5772" filterUnits="userSpaceOnUse" color-interpolation-filters="sRGB">
<feFlood flood-opacity="0" result="BackgroundImageFix"/>
<feColorMatrix in="SourceAlpha" type="matrix" values="0 0 0 0 0 0 0 0 0 0 0 0 0 0 0 0 0 0 127 0" result="hardAlpha"/>
<feOffset dy="0.804705"/>
<feGaussianBlur stdDeviation="0.402352"/>
<feComposite in2="hardAlpha" operator="out"/>
<feColorMatrix type="matrix" values="0 0 0 0 0 0 0 0 0 0 0 0 0 0 0 0 0 0 0.25 0"/>
<feBlend mode="normal" in2="BackgroundImageFix" result="effect1_dropShadow_345_6859"/>
<feBlend mode="normal" in="SourceGraphic" in2="effect1_dropShadow_345_6859" result="shape"/>
</filter>
</defs>
</svg>
